Coordinates
version=1
nRows=7
nColumns=40
inDegrees=yes

Units are S.I. units (second, meters, Newtons, ...)
Angles are in degrees.

endheader
time	pelvis_tilt	pelvis_list	pelvis_rotation	pelvis_tx	pelvis_ty	pelvis_tz	hip_flexion_r	hip_adduction_r	hip_rotation_r	knee_angle_r	knee_angle_r_beta	ankle_angle_r	subtalar_angle_r	mtp_angle_r	hip_flexion_l	hip_adduction_l	hip_rotation_l	knee_angle_l	knee_angle_l_beta	ankle_angle_l	subtalar_angle_l	mtp_angle_l	lumbar_extension	lumbar_bending	lumbar_rotation	arm_flex_r	arm_add_r	arm_rot_r	elbow_flex_r	pro_sup_r	wrist_flex_r	wrist_dev_r	arm_flex_l	arm_add_l	arm_rot_l	elbow_flex_l	pro_sup_l	wrist_flex_l	wrist_dev_l
     18.52128571	     -3.91102752	     -6.53876140	      3.97307366	      1.12366233	      0.91010640	      0.45621276	     -5.43818231	      6.57480068	    -16.44928343	      8.66830022	      8.66830022	     19.91790528	      5.36088538	     -2.96322083	     34.39657193	     -8.44935226	     -6.13853381	     20.56498048	     20.56498048	      2.19784094	     -9.96197363	      8.22577823	     -6.70036595	      6.98085223	      3.31369272	     43.87811915	    -15.58183793	     -7.03051266	     75.51449925	     44.93940290	      0.00000000	      0.00000000	    -19.76039555	     -7.23930941	      6.77640415	     22.15851996	     45.01008588	      0.00000000	      0.00000000
     18.53257143	     -4.09745246	     -6.35079515	      3.87592945	      1.12504562	      0.90861156	      0.45409055	     -5.56144451	      6.11358448	    -16.18829068	      9.53183509	      9.53183509	     20.57252079	      4.89596791	     -2.40628518	     34.35265504	     -7.94853493	     -5.39626518	     21.53925827	     21.53925827	      1.04149709	    -12.22080985	      7.77939220	     -6.38202215	      6.80171352	      2.91310993	     43.40897443	    -14.89561886	     -7.42637808	     78.33561138	     44.86771698	      0.00000000	      0.00000000	    -20.57932881	     -7.00440663	      6.76544567	     22.05170278	     45.01377179	      0.00000000	      0.00000000
     18.54385714	     -4.04125957	     -6.04817475	      3.72599694	      1.12677894	      0.90769541	      0.45186216	     -6.03910077	      5.51610384	    -15.99277856	     10.30411863	     10.30411863	     21.38374230	      4.84017463	     -1.24896301	     33.97579812	     -7.45245794	     -4.90904421	     22.51907179	     22.51907179	      0.00583019	    -14.10456057	      6.75050342	     -6.34892458	      6.45985421	      3.67393843	     41.97736515	    -15.39443713	     -8.56472002	     81.87836218	     44.81248699	      0.00000000	      0.00000000	    -20.60875131	     -7.12383344	      6.64774110	     22.04367920	     45.08202206	      0.00000000	      0.00000000
     18.55514286	     -3.96915151	     -5.86221870	      3.60260484	      1.12847483	      0.90692213	      0.44955527	     -6.50497291	      5.03394425	    -15.83334867	     11.05488454	     11.05488454	     21.69420200	      4.67580079	     -1.28815823	     33.82137694	     -7.17143309	     -4.59653452	     23.92745047	     23.92745047	     -0.09616505	    -15.11689743	      6.58486067	     -6.23071592	      6.28578194	      3.47163337	     41.62102842	    -14.99423640	     -8.61685113	     82.75215287	     44.78897313	      0.00000000	      0.00000000	    -20.90036381	     -6.97644636	      6.67997650	     21.79475666	     45.07972624	      0.00000000	      0.00000000
     18.56642857	     -4.02811297	     -5.55155251	      3.45555066	      1.12997415	      0.90640691	      0.44694270	     -6.57320150	      4.28152193	    -15.74304677	     12.30642504	     12.30642504	     22.06785553	      4.53945871	     -1.21793754	     33.67249111	     -6.66792171	     -4.10220788	     25.06550352	     25.06550352	      0.05459780	    -16.35589463	      7.15722879	     -6.10529815	      6.00431407	      3.95732212	     40.01180408	    -15.23581674	     -9.50135740	     86.15730332	     44.73039382	      0.00000000	      0.00000000	    -20.55300122	     -6.86954011	      6.64715595	     21.28591429	     45.14384158	      0.00000000	      0.00000000
     18.57771429	     -3.97947926	     -5.37842638	      3.33352234	      1.13145664	      0.90624314	      0.44425724	     -6.67264869	      3.65957906	    -15.63367384	     13.65955299	     13.65955299	     22.18282745	      4.32257822	     -1.59178738	     33.52391278	     -6.40069176	     -3.83658300	     26.37078984	     26.37078984	      0.54780649	    -16.98551044	      7.15017194	     -6.04079683	      5.92148604	      3.74205491	     39.33449136	    -14.91013840	     -9.60688447	     87.15078626	     44.70711055	      0.00000000	      0.00000000	    -20.42332719	     -6.61854739	      6.69204007	     21.06423933	     45.15239105	      0.00000000	      0.00000000
     18.58900000	     -3.95594852	     -5.10466499	      3.22805885	      1.13279026	      0.90656175	      0.44132304	     -6.59066575	      2.82931576	    -15.66656921	     15.25896750	     15.25896750	     21.77867450	      4.15702295	     -3.12602348	     33.32240996	     -5.97821692	     -3.53729691	     27.55104385	     27.55104385	      1.87982136	    -17.34324089	      8.90748145	     -6.02745111	      5.70159013	      4.47062057	     37.32446914	    -15.42007808	    -10.56299639	     90.18937868	     44.67281864	      0.00000000	      0.00000000	    -19.47298300	     -6.55446989	      6.69043659	     20.27009249	     45.23841932	      0.00000000	      0.00000000
